OpenSim_Sub08_CSBaseline_RCS.mot
version=1
nRows=33
nColumns=11
inDegrees=no
endheader
time	Top_Thigh	Med_Thigh	Bot_Thigh	Top_Shank	2nd_Top_Shank	2nd_Bot_Shank	Bot_Shank	BNOx	BNOy	BNOZ
27.30000000	1855.15515032	1759.72046228	1544.81357720	1330.14660608	1332.44235592	1329.22175418	1177.42765712	33.55815061	-62.65245308	221.35539351
27.31000000	1854.41720016	1758.95716738	1541.06079239	1329.95216542	1335.30253155	1328.57684164	1178.55903287	34.27615944	-62.48412222	215.84276135
27.32000000	1853.68585904	1758.17058097	1536.21551327	1329.75512803	1337.91471978	1327.59516210	1179.34985588	34.97946517	-62.31164091	207.79475668
27.33000000	1853.01603886	1757.42184819	1530.79274198	1329.53098827	1340.08871907	1326.36560680	1179.75558660	35.68294276	-62.13355262	198.16624927
27.34000000	1852.46265154	1756.77211420	1525.30748064	1329.25524049	1341.63432791	1324.97706698	1179.73168545	36.40146715	-61.94840083	187.91210891
27.35000000	1852.08060898	1756.28252413	1520.27473139	1328.90337905	1342.36134475	1323.51843386	1179.23361288	37.14991329	-61.75472900	177.98720535
27.36000000	1851.92482310	1756.01422313	1516.20949636	1328.45089830	1342.07956809	1322.07859870	1178.21682933	37.94315613	-61.55108062	169.34640837
27.37000000	1852.04999851	1756.02817226	1513.62543450	1327.87330963	1340.59975594	1320.74620880	1176.63711256	38.79602037	-61.33600741	162.94238779
27.38000000	1852.46689373	1756.34630658	1512.75145235	1327.14973705	1337.93609210	1319.55820086	1174.51751190	39.71267656	-61.10981413	159.26142716
27.39000000	1853.08821778	1756.90348894	1513.18113618	1326.26736480	1334.55663010	1318.43613836	1172.03116845	40.67352444	-60.87671668	157.74924051
27.40000000	1853.81341290	1757.62280078	1514.42210926	1325.21446770	1330.99083504	1317.28597400	1169.37153172	41.65574743	-60.64146015	157.71074606
27.41000000	1854.54192134	1758.42732350	1515.98199486	1323.97932057	1327.76817201	1316.01366051	1166.73205120	42.63652892	-60.40878965	158.45086198
27.42000000	1855.17375035	1759.24056150	1517.37108821	1322.55036524	1325.41498441	1314.52590612	1164.30519623	43.59321301	-60.18341258	159.27777300
27.43000000	1855.65262137	1760.01874292	1518.30641415	1320.92896230	1324.21608993	1312.78787478	1162.20759975	44.51557501	-59.96711794	159.75239585
27.44000000	1855.99635435	1760.77356496	1518.85541856	1319.13837064	1324.04690338	1310.86381692	1160.42734674	45.41446206	-59.75674792	159.86404552
27.45000000	1856.22994686	1761.52209787	1519.11949096	1317.20397033	1324.74318266	1308.82758100	1158.94007038	46.30276244	-59.54866553	159.64353397
27.46000000	1856.37839644	1762.28141189	1519.20002088	1315.15114143	1326.14068565	1306.75301546	1157.72140381	47.19336442	-59.33923375	159.12167313
27.47000000	1856.46670066	1763.06857726	1519.19839784	1313.00526402	1328.07517025	1304.71396879	1156.74698021	48.09915627	-59.12481559	158.32927496
27.48000000	1856.51985706	1763.90066421	1519.21601136	1310.79171815	1330.38239435	1302.78428943	1155.99243272	49.03302627	-58.90177405	157.29715138
27.49000000	1856.56286319	1764.79474298	1519.35425096	1308.53588390	1332.89811583	1301.03782584	1155.43339452	50.00786269	-58.66647214	156.05611434
27.50000000	1856.62071661	1765.76788382	1519.71450617	1306.26314134	1335.45809259	1299.54842649	1155.04549876	51.03655380	-58.41527285	154.63697578
27.51000000	1856.71841487	1766.83715696	1520.39816651	1303.99887053	1337.89808252	1298.38993983	1154.80437860	52.13198787	-58.14453919	153.07054765
27.52000000	1856.88095552	1768.01963265	1521.50662150	1301.76845153	1340.05384351	1297.63621433	1154.68566721	53.30705318	-57.85063415	151.38764187
27.53000000	1857.13333612	1769.33238111	1523.14126067	1299.59726443	1341.76113344	1297.36109844	1154.66499774	54.57463799	-57.52992075	149.61907041
27.54000000	1857.50055422	1770.79247260	1525.40347353	1297.51068927	1342.85571022	1297.63844062	1154.71800335	55.94763059	-57.17876197	147.79564519
27.55000000	1858.00760737	1772.41697734	1528.39464962	1295.53410614	1343.17333172	1298.54208934	1154.82031721	57.43891924	-56.79352083	145.94817815
27.56000000	1858.67949312	1774.22296559	1532.21617845	1293.69289510	1342.54975585	1300.14589306	1154.94757247	59.06139222	-56.37056032	144.10748125
27.57000000	1859.53560957	1776.22427071	1536.94033964	1292.01521999	1340.84728405	1302.49826729	1155.07384932	60.82709601	-55.90677492	142.30177414
27.58000000	1860.51157040	1778.38629300	1542.20384250	1290.57089822	1338.32538823	1305.26707537	1155.14999081	62.73548146	-55.40701161	140.52048829
27.59000000	1861.47849185	1780.63714889	1547.30809340	1289.46181222	1335.54928285	1307.82723082	1155.10895197	64.77630327	-54.88223924	138.72319597
27.60000000	1862.30728953	1782.90422840	1551.55473099	1288.78920288	1333.08520949	1309.55460704	1154.88388013	66.93900989	-54.34340776	136.86929348
27.61000000	1862.92557624	1785.12396717	1554.58972564	1288.59730718	1331.23359530	1310.15534273	1154.43328471	69.21084088	-53.79461225	134.94119660
27.62000000	1863.33461642	1787.24455138	1556.50634682	1288.85631199	1329.94956513	1309.76460289	1153.74862147	71.57616633	-53.23104297	132.95122419
